<svg fill="#000000" height="64px" width="64px" version="1.1" id="Capa_1" xmlns="http://www.w3.org/2000/svg" xmlns:xlink="http://www.w3.org/1999/xlink" viewBox="-12.32 -12.32 80.64 80.64" xml:space="preserve" stroke="#000000" stroke-width="0.00056" transform="matrix(-1, 0, 0, 1, 0, 0)rotate(0)"><g id="SVGRepo_bgCarrier" stroke-width="0"></g><g id="SVGRepo_tracerCarrier" stroke-linecap="round" stroke-linejoin="round" stroke="#CCCCCC" stroke-width="0.8960000000000001"></g><g id="SVGRepo_iconCarrier"> <g> <path d="M8,40c-4.411,0-8,3.589-8,8s3.589,8,8,8s8-3.589,8-8S12.411,40,8,40z"></path> <path d="M28,40c-4.411,0-8,3.589-8,8s3.589,8,8,8s8-3.589,8-8S32.411,40,28,40z"></path> <path d="M48,40c-4.411,0-8,3.589-8,8s3.589,8,8,8s8-3.589,8-8S52.411,40,48,40z"></path> <path d="M8,20c-4.411,0-8,3.589-8,8s3.589,8,8,8s8-3.589,8-8S12.411,20,8,20z"></path> <path d="M28,20c-4.411,0-8,3.589-8,8s3.589,8,8,8s8-3.589,8-8S32.411,20,28,20z"></path> <path d="M48,20c-4.411,0-8,3.589-8,8s3.589,8,8,8s8-3.589,8-8S52.411,20,48,20z"></path> <path d="M8,0C3.589,0,0,3.589,0,8s3.589,8,8,8s8-3.589,8-8S12.411,0,8,0z"></path> <path d="M28,0c-4.411,0-8,3.589-8,8s3.589,8,8,8s8-3.589,8-8S32.411,0,28,0z"></path> <path d="M48,16c4.411,0,8-3.589,8-8s-3.589-8-8-8s-8,3.589-8,8S43.589,16,48,16z"></path> </g> </g></svg>